<?xml version="1.0" standalone="no"?>
<!DOCTYPE svg PUBLIC "-//W3C//DTD SVG 20010904//EN"
 "http://www.w3.org/TR/2001/REC-SVG-20010904/DTD/svg10.dtd">
<svg version="1.0" xmlns="http://www.w3.org/2000/svg"
 width="360.000000pt" height="360.000000pt" viewBox="0 0 360.000000 360.000000"
 preserveAspectRatio="xMidYMid meet">

<g transform="translate(0.000000,360.000000) scale(0.100000,-0.100000)"
fill="#000000" stroke="none">
<path d="M1010 2750 l0 -170 -170 6 -170 7 0 -171 0 -172 -165 0 -165 0 0
-785 0 -785 1065 0 1065 0 0 165 0 165 173 0 172 0 -3 170 -4 170 171 0 171 0
0 785 0 785 -1070 0 -1070 0 0 -170z m2020 -615 l0 -675 -111 0 -111 0 3 563
3 562 -847 -3 -847 -3 0 116 0 115 955 0 955 0 0 -675z m-330 -335 l0 -670
-115 0 -115 0 0 560 0 560 -845 0 -845 0 0 110 0 110 960 0 960 0 0 -670z
m-340 -335 l0 -675 -955 0 -955 0 0 675 0 675 955 0 955 0 0 -675z"/>
</g>
</svg>
